<?xml version="1.0" encoding="utf-8"?>
<!-- Generator: Adobe Illustrator 26.0.2, SVG Export Plug-In . SVG Version: 6.00 Build 0)  -->
<svg version="1.1" id="Logo" xmlns="http://www.w3.org/2000/svg" xmlns:xlink="http://www.w3.org/1999/xlink" x="0px" y="0px"
	 viewBox="0 0 579.5 211.39" style="enable-background:new 0 0 579.5 211.39;" xml:space="preserve">
<style type="text/css">
	.st0{fill:#140F4B;}
	.st1{fill:none;}
</style>
<path id="Wordmark" class="st0" d="M468.38,115.14c0-14.91,10.83-26.55,26.96-26.55c4.6,0,9.8,1.12,13.69,3.27v11.23h-0.31
	c-3.98-2.35-7.97-3.47-12.46-3.47c-9.7,0-14.91,6.64-14.91,15.52c0,8.88,5.21,15.52,14.91,15.52c4.49,0,8.48-1.12,12.46-3.47h0.31
	v11.23c-3.88,2.14-9.09,3.27-13.69,3.27C479.21,141.7,468.38,130.05,468.38,115.14 M467.16,140.68c-1.94,0.41-4.19,0.71-6.23,0.71
	c-9.7,0-14.91-5.11-14.91-14.5V89.61h12.77v36.36c0,3.37,1.63,5,5.11,5c0.82,0,1.84-0.1,2.96-0.31h0.3V140.68z M460.11,77.15
	c0,4.09-3.27,7.56-7.56,7.56c-4.09,0-7.46-3.47-7.46-7.56c0-4.09,3.37-7.46,7.46-7.46C456.84,69.7,460.11,73.07,460.11,77.15
	 M403.12,112.18c0-7.86,3.98-12.97,11.34-12.97c7.25,0,10.62,4.8,10.62,12.97v28.49h12.66v-29c0-12.26-6.33-23.08-20.12-23.08
	c-7.35,0-12.26,3.68-15.01,9.19v-8.17h-12.15v51.06h12.66V112.18z M356.93,130.77c9.09,0,13.79-6.64,13.79-15.63
	c0-8.99-4.7-15.63-13.79-15.63c-8.89,0-13.89,6.64-13.89,15.63C343.04,124.13,348.04,130.77,356.93,130.77 M356.93,141.7
	c-16.04,0-26.86-11.64-26.86-26.55c0-14.91,10.83-26.55,26.86-26.55c15.93,0,26.76,11.64,26.76,26.55
	C383.69,130.05,372.86,141.7,356.93,141.7 M312.81,113.92c0-8.27,4.29-12.87,12.46-12.87c1.43,0,2.96,0.2,4.39,0.61h0.21V89.81
	c-1.33-0.51-3.06-0.82-5.01-0.82c-6.13,0-10.21,3.78-12.56,9.91v-9.29h-12.15v51.06h12.66V113.92z M228.76,130.97
	c8.58,0,13.38-6.64,13.38-15.93c0-9.19-4.8-15.83-13.38-15.83c-8.68,0-13.17,6.64-13.17,15.83
	C215.58,124.33,220.08,130.97,228.76,130.97 M286.66,141.7c-11.74,0-18.38-5.41-18.38-17.67v-24.1h-14.09v25.63
	c0,3.78,1.43,5.31,4.49,5.31c0.71,0,1.53,0,2.45-0.2h0.31v10.01c-1.23,0.31-3.68,0.61-5.52,0.61c-6.94,0-11.23-2.65-13.07-8.48
	c-3.68,5.72-9.5,8.89-16.75,8.89c-12.97,0-23.49-10.11-23.49-26.66c0-16.34,10.52-26.45,23.49-26.45c6.43,0,11.74,2.45,15.42,6.94
	V70.21h12.67v19.4h14.09V77.46h12.66v12.15h13.58v10.31h-13.58v23.49c0,5.11,2.55,7.56,7.46,7.56c2.25,0,3.78-0.2,5.82-0.71h0.31
	v10.42C292.08,141.29,289.12,141.7,286.66,141.7 M70.46,140.67h12.56l2.35-44.02l0.51-11.95h0.2l2.66,11.95l10.21,44.02h15.73
	L125,96.66l2.55-11.95h0.2l0.51,11.95l2.45,44.02h13.07l-4.29-70.47h-20.83l-9.4,42.28l-2.04,10.72h-0.2l-2.15-10.72l-9.4-42.28
	H74.65L70.46,140.67z M197.81,114.22c0,2.45-0.21,5-0.61,7.05h-36.77c1.33,6.13,6.54,9.91,16.34,9.91c0.04,0,0.09,0,0.13,0
	c0.03,0,0.07,0,0.1,0c0.62,0,1.22-0.02,1.82-0.05c0.32-0.02,0.65-0.04,0.97-0.07c0.25-0.02,0.5-0.04,0.75-0.07
	c4.08-0.41,7.96-1.51,11.53-3.18c0.28-0.14,0.57-0.27,0.84-0.41h0c0.72-0.36,1.42-0.76,2.12-1.17h0.31v10.34
	c-5.38,3.25-11.69,5.13-18.44,5.13v-0.02c-0.25,0-0.49,0.02-0.74,0.02c-18.49,0-28.6-10.52-28.6-25.84
	c0-16.44,10.42-27.27,25.53-27.27C188.21,88.59,197.81,99.31,197.81,114.22z M185.76,111.36c-0.61-7.66-4.6-12.15-12.66-12.15
	c-7.46,0-12.05,4.7-12.87,12.15H185.76z"/>
<rect x="-0.05" y="-0.14" class="st1" width="579.6" height="211.68"/>
</svg>
